 <svg id="Fontisto" data-name="Fontisto Logo" xmlns="http://www.w3.org/2000/svg" viewBox="665.198 -245.501 429.572 135.101" >
    <defs>
        <style>
           .cls-1 {fill: #fff;}
            #Path_9 {animation: draw 3.5s infinite;}
            @keyframes draw {
                0% {transform: translate(663.25px, -129.662px);}
                15% {transform: translate(663.25px, -169.662px);}
                25% {transform: translate(663.25px, -129.662px);}
                40% {transform: translate(663.25px, -159.662px);}
                50% {transform: translate(663.25px, -129.662px);}
                65% {transform: translate(663.25px, -149.662px);}
                75% {transform: translate(663.25px, -129.662px);}
                90% {transform: translate(663.25px, -139.662px);}
                100% {transform: translate(663.25px, -129.662px);}
            }
        </style>
    </defs>
    <path id="Path_1" data-name="Path1" class="cls-1" d="M51.92-41.58v10.23L33.44-26.73,30.8,0H9.35L2.75-66.66h50.6l3.41,13.64L35.97-51.7l-1.1,10.12Z" transform="translate(663 -130)"/>
    <path id="Path_2" data-name="Path2" class="cls-1" d="M2.75-26.29q0-14.3,7.975-20.845T32.01-53.68q13.31,0,21.285,6.545T61.27-26.29q0,14.3-7.975,20.845T32.01,1.1Q18.7,1.1,10.725-5.445T2.75-26.29Zm23.32,0q0,8.69,1.32,12.485t4.62,3.795q3.3,0,4.62-3.795T37.95-26.29q0-8.69-1.32-12.485t-4.62-3.8q-3.3,0-4.62,3.8T26.07-26.29Z" transform="translate(721 -130)"/>
    <path id="Path_3" data-name="Path3" class="cls-1" d="M44.88-53.68q7.7,0,13.255,6.49T63.69-30.305q0,10.4-2.53,30.305H41.91l-2.2-24.64q-1.1-11.77-6.38-11.77-6.27,0-6.71,11.88L25.85,0H5.61L3.3-52.14H28.16l-.44,9.35a20.175,20.175,0,0,1,2.53-3.41,25.937,25.937,0,0,1,3.85-3.74A17.2,17.2,0,0,1,44.88-53.68Z" transform="translate(786 -130)"/>
    <path id="Path_4" data-name="Path4" class="cls-1" d="M32.45-19.58q-.11,6.38,4.51,6.38a6.219,6.219,0,0,0,3.19-1.21L42.46-3.74q-.66.55-1.815,1.375A23.08,23.08,0,0,1,35.695-.22,23.771,23.771,0,0,1,27.83,1.1,15.875,15.875,0,0,1,15.62-4.015,19.721,19.721,0,0,1,10.56-17.05L9.57-37.84H1.1l1.32-14.3h6.6L8.58-62.92,34.65-68.2l-.77,16.06h6.38l1.32,14.3H33.22Z" transform="translate(853 -130)"/>
    <path id="Path_5" data-name="Path5" class="cls-1" d="M28.38-50.6l1.87-.66L26.51,0H5.72L2.2-51.26a35.376,35.376,0,0,0,13.365,2.53A41.113,41.113,0,0,0,28.38-50.6Z" transform="translate(900 -130)"/>
    <path id="Path_6" data-name="Path6" class="cls-1" d="M51.04-16.5A14.178,14.178,0,0,1,46.86-6.05,21.407,21.407,0,0,1,37.235-.385,39.879,39.879,0,0,1,26.73,1.1,52.261,52.261,0,0,1,17.875.44,45.106,45.106,0,0,1,11.44-1.1a56.879,56.879,0,0,1-7.7-3.52l-.99-.66L7.59-15.29q6.6,3.74,11.11,3.74t4.51-3.74q0-1.87-2.86-3.85a59.314,59.314,0,0,0-6.215-3.74A19.647,19.647,0,0,1,7.92-28.27a13.13,13.13,0,0,1-2.86-8.36q0-8.47,6.38-12.76t16.83-4.29a60.238,60.238,0,0,1,10.34.88,51.856,51.856,0,0,1,7.59,1.76l2.42.99L45.87-38.94A31.882,31.882,0,0,0,35.2-41.25q-4.4,0-4.4,3.41,0,1.65,2.09,3.135a34.938,34.938,0,0,0,5.06,2.915q2.97,1.43,5.94,3.245a16.258,16.258,0,0,1,5.06,4.95A12.5,12.5,0,0,1,51.04-16.5Z" transform="translate(933 -130)"/>
    <path id="Path_7" data-name="Path7" class="cls-1" d="M32.45-19.58q-.11,6.38,4.51,6.38a6.219,6.219,0,0,0,3.19-1.21L42.46-3.74q-.66.55-1.815,1.375A23.08,23.08,0,0,1,35.695-.22,23.771,23.771,0,0,1,27.83,1.1,15.875,15.875,0,0,1,15.62-4.015,19.721,19.721,0,0,1,10.56-17.05L9.57-37.84H1.1l1.32-14.3h6.6L8.58-62.92,34.65-68.2l-.77,16.06h6.38l1.32,14.3H33.22Z" transform="translate(987 -130)"/>
    <path id="Path_8" data-name="Path8" class="cls-1" d="M2.75-26.29q0-14.3,7.975-20.845T32.01-53.68q13.31,0,21.285,6.545T61.27-26.29q0,14.3-7.975,20.845T32.01,1.1Q18.7,1.1,10.725-5.445T2.75-26.29Zm23.32,0q0,8.69,1.32,12.485t4.62,3.795q3.3,0,4.62-3.795T37.95-26.29q0-8.69-1.32-12.485t-4.62-3.8q-3.3,0-4.62,3.8T26.07-26.29Z" transform="translate(1033 -130)"/>
    <path id="Path_9" data-name="Path9" class="cls-1" d="M243.21-56.87a10.967,10.967,0,0,1-3.74-8.635,10.875,10.875,0,0,1,3.685-8.58,13.471,13.471,0,0,1,9.24-3.245,13.54,13.54,0,0,1,9.3,3.3,10.9,10.9,0,0,1,3.74,8.58,10.905,10.905,0,0,1-3.74,8.58,13.463,13.463,0,0,1-9.24,3.3,13.463,13.463,0,0,1-9.24-3.3Z" transform="translate(663.25 -129.662)"/>
</svg>

