<svg xmlns="http://www.w3.org/2000/svg" viewBox="165 -447 200 200"><defs><style>.a{fill:#fff;}</style></defs><path class="a" d="M100,200A100,100,0,1,1,200,100,100.113,100.113,0,0,1,100,200Zm18.649-115.32,4.278,62.293h25.265l4.545-62.292-2.272.8a50.2,50.2,0,0,1-15.574,2.272,43.2,43.2,0,0,1-16.241-3.074ZM47,65.965l8.021,81.007H81.086l3.208-32.483,22.458-5.614V96.444H86.033l1.337-12.3,25.265-1.6L108.49,65.966H47ZM135.559,53a16.442,16.442,0,0,0-11.228,3.943,13.271,13.271,0,0,0-4.478,10.426A13.385,13.385,0,0,0,124.4,77.864a17.724,17.724,0,0,0,22.457,0A13.309,13.309,0,0,0,151.4,67.437a13.306,13.306,0,0,0-4.545-10.427A16.521,16.521,0,0,0,135.559,53Z" transform="translate(165 -447)"/></svg>