<svg xmlns="http://www.w3.org/2000/svg" viewBox="-49.802 1180.17 428.952 79.43"><defs><style>.a{fill:#f75454;stroke:rgba(0,0,0,0);}</style></defs><path class="a" d="M51.92-41.58v10.23L33.44-26.73,30.8,0H9.35L2.75-66.66h50.6l3.41,13.64L35.97-51.7l-1.1,10.12Zm9.24,15.29q0-14.3,7.975-20.845T90.42-53.68q13.31,0,21.285,6.545T119.68-26.29q0,14.3-7.975,20.845T90.42,1.1q-13.31,0-21.285-6.545T61.16-26.29Zm23.32,0q0,8.69,1.32,12.485t4.62,3.795q3.3,0,4.62-3.795T96.36-26.29q0-8.69-1.32-12.485t-4.62-3.8q-3.3,0-4.62,3.8T84.48-26.29Zm82.83-27.39q7.7,0,13.255,6.49t5.555,16.885q0,10.4-2.53,30.305H164.34l-2.2-24.64q-1.1-11.77-6.38-11.77-6.27,0-6.71,11.88L148.28,0H128.04l-2.31-52.14h24.86l-.44,9.35a20.175,20.175,0,0,1,2.53-3.41,25.937,25.937,0,0,1,3.85-3.74A17.2,17.2,0,0,1,167.31-53.68Zm54.56,34.1q-.11,6.38,4.51,6.38a6.219,6.219,0,0,0,3.19-1.21l2.31,10.67q-.66.55-1.815,1.375a23.081,23.081,0,0,1-4.95,2.145A23.771,23.771,0,0,1,217.25,1.1a15.875,15.875,0,0,1-12.21-5.115,19.721,19.721,0,0,1-5.06-13.035l-.99-20.79h-8.47l1.32-14.3h6.6L198-62.92l26.07-5.28-.77,16.06h6.38L231-37.84h-8.36ZM264.66-50.6l1.87-.66L262.79,0H242l-3.52-51.26a35.376,35.376,0,0,0,13.365,2.53A41.113,41.113,0,0,0,264.66-50.6Zm-21.45-6.27a10.967,10.967,0,0,1-3.74-8.635,10.875,10.875,0,0,1,3.685-8.58,13.471,13.471,0,0,1,9.24-3.245,13.54,13.54,0,0,1,9.295,3.3,10.905,10.905,0,0,1,3.74,8.58,10.905,10.905,0,0,1-3.74,8.58,13.463,13.463,0,0,1-9.24,3.3A13.463,13.463,0,0,1,243.21-56.87ZM320.87-16.5a14.178,14.178,0,0,1-4.18,10.45,21.407,21.407,0,0,1-9.625,5.665A39.878,39.878,0,0,1,296.56,1.1a52.262,52.262,0,0,1-8.855-.66A45.105,45.105,0,0,1,281.27-1.1a56.881,56.881,0,0,1-7.7-3.52l-.99-.66,4.84-10.01q6.6,3.74,11.11,3.74t4.51-3.74q0-1.87-2.86-3.85a59.316,59.316,0,0,0-6.215-3.74,19.647,19.647,0,0,1-6.215-5.39,13.13,13.13,0,0,1-2.86-8.36q0-8.47,6.38-12.76t16.83-4.29a60.238,60.238,0,0,1,10.34.88,51.857,51.857,0,0,1,7.59,1.76l2.42.99L315.7-38.94a31.882,31.882,0,0,0-10.67-2.31q-4.4,0-4.4,3.41,0,1.65,2.09,3.135a34.938,34.938,0,0,0,5.06,2.915q2.97,1.43,5.94,3.245a16.259,16.259,0,0,1,5.06,4.95A12.5,12.5,0,0,1,320.87-16.5Zm35.2-3.08q-.11,6.38,4.51,6.38a6.219,6.219,0,0,0,3.19-1.21l2.31,10.67q-.66.55-1.815,1.375a23.08,23.08,0,0,1-4.95,2.145A23.771,23.771,0,0,1,351.45,1.1a15.875,15.875,0,0,1-12.21-5.115,19.721,19.721,0,0,1-5.06-13.035l-.99-20.79h-8.47l1.32-14.3h6.6l-.44-10.78,26.07-5.28-.77,16.06h6.38l1.32,14.3h-8.36Zm16.06-6.71q0-14.3,7.975-20.845T401.39-53.68q13.31,0,21.285,6.545T430.65-26.29q0,14.3-7.975,20.845T401.39,1.1q-13.31,0-21.285-6.545T372.13-26.29Zm23.32,0q0,8.69,1.32,12.485t4.62,3.795q3.3,0,4.62-3.795t1.32-12.485q0-8.69-1.32-12.485t-4.62-3.8q-3.3,0-4.62,3.8T395.45-26.29Z" transform="translate(-52 1258)"/></svg>