<svg xmlns="http://www.w3.org/2000/svg" viewBox="124 1680 100 100"><defs><style>.a,.c{fill:none;}.b{fill:#f75454;}.c{stroke:#f75454;stroke-width:6px;fill-rule:evenodd;}</style></defs><g transform="translate(-7 -56)"><rect class="a" width="100" height="100" transform="translate(131 1736)"/><g transform="translate(-966.698 81.089)"><path class="b" d="M30.633,18.253a7.3,7.3,0,1,1-7.3-7.3,7.3,7.3,0,0,1,7.3,7.3Z" transform="translate(1115.83 1666.944)"/><path class="c" d="M13.516,10.11l3.819,26.508,18.87-4.044,3.819,15.051,5.616-1.572" transform="translate(1125.534 1675.2)"/><path class="b" d="M21.943,21.668A16.766,16.766,0,1,0,46.513,37.64l-4.079.934A12.789,12.789,0,0,1,29.9,49.236,12.95,12.95,0,0,1,16.931,36.263a12.763,12.763,0,0,1,5.9-10.565Z" transform="translate(1111 1677.914)"/><path class="c" d="M22.857,21.752,40.963,20" transform="translate(1118.119 1677.48)"/></g></g></svg>