<svg xmlns="http://www.w3.org/2000/svg" viewBox="238 1680 100 100"><defs><style>.a{fill:none;}.b{fill:#f75454;}</style></defs><g transform="translate(-7 -56)"><rect class="a" width="100" height="100" transform="translate(245 1736)"/><g transform="translate(-234.517 392.979)"><path class="b" d="M137.915,209.809v5.6a2.437,2.437,0,0,1-1.117,2.159,5.832,5.832,0,0,1-3.281.756v4.109a5.679,5.679,0,0,1,3.272.791,2.615,2.615,0,0,1,1.125,2.287v5.406a4.084,4.084,0,0,0,1.668,3.723q1.668,1.074,5.858,1.073v-3.882a3.574,3.574,0,0,1-2.354-.652,2.332,2.332,0,0,1-.635-1.772v-5.286q0-3.039-4.022-3.642v-.208q3.921-.58,4.022-3.814v-5.136a2.311,2.311,0,0,1,.644-1.772,3.663,3.663,0,0,1,2.346-.652v-3.861q-4.19,0-5.858,1.067A4.065,4.065,0,0,0,137.915,209.809Z" transform="translate(356 1172.992)"/><path class="b" d="M170.983,219.692a7.332,7.332,0,0,1,2.127.319,24.17,24.17,0,0,1,2.306.814l1.542-4.057a13.38,13.38,0,0,0-5.978-1.3q-4.554,0-6.988,2.591c-1.627,1.714-2.441,4.213-2.441,7.479q0,9.834,8.968,9.839a14.329,14.329,0,0,0,3.272-.312,8.4,8.4,0,0,0,2.568-1.117V229.46a10.268,10.268,0,0,1-2.574,1.264,9.282,9.282,0,0,1-2.8.4q-4.086,0-4.086-5.632Q166.9,219.69,170.983,219.692Z" transform="translate(342.876 1168.112)"/><path class="b" d="M208.079,225.048a15.234,15.234,0,0,0-3.3-1.7,20.942,20.942,0,0,1-3.275-1.523,1.489,1.489,0,0,1-.745-1.223q0-1.255,2.317-1.253a8.606,8.606,0,0,1,2.562.393c.837.266,1.731.6,2.695,1.016l1.581-3.78a15.936,15.936,0,0,0-6.752-1.512,9.633,9.633,0,0,0-5.624,1.4,4.554,4.554,0,0,0-1.988,3.959,5.979,5.979,0,0,0,.479,2.516,4.874,4.874,0,0,0,1.512,1.812,15.245,15.245,0,0,0,3.252,1.719q1.545.649,2.476,1.142a5.3,5.3,0,0,1,1.3.877,1.354,1.354,0,0,1,.381,1q0,1.653-2.857,1.649a13.426,13.426,0,0,1-3.214-.462,18.645,18.645,0,0,1-3.3-1.148v4.328a13.769,13.769,0,0,0,2.77.831,19.138,19.138,0,0,0,3.572.283q4.086,0,6.14-1.547a5.29,5.29,0,0,0,2.055-4.5,5.592,5.592,0,0,0-.5-2.452,4.932,4.932,0,0,0-1.547-1.822Z" transform="translate(326.959 1168.111)"/><path class="b" d="M240.962,225.048a15.073,15.073,0,0,0-3.3-1.7,20.745,20.745,0,0,1-3.272-1.523,1.48,1.48,0,0,1-.745-1.223q0-1.255,2.317-1.253a8.6,8.6,0,0,1,2.559.393,28.576,28.576,0,0,1,2.695,1.016l1.584-3.78a15.941,15.941,0,0,0-6.749-1.512,9.663,9.663,0,0,0-5.63,1.4,4.549,4.549,0,0,0-1.982,3.959,5.932,5.932,0,0,0,.473,2.516,4.84,4.84,0,0,0,1.509,1.812,15.363,15.363,0,0,0,3.255,1.719q1.542.649,2.473,1.142a5.3,5.3,0,0,1,1.3.877,1.351,1.351,0,0,1,.381,1q0,1.653-2.851,1.649a13.451,13.451,0,0,1-3.22-.462,18.429,18.429,0,0,1-3.289-1.148v4.328a13.712,13.712,0,0,0,2.766.831,19.139,19.139,0,0,0,3.572.283q4.086,0,6.14-1.547a5.283,5.283,0,0,0,2.055-4.5,5.622,5.622,0,0,0-.5-2.452,4.969,4.969,0,0,0-1.551-1.822Z" transform="translate(311.562 1168.111)"/><path class="b" d="M269.588,217.6a2.435,2.435,0,0,1-1.056-2.164V209.8a5.014,5.014,0,0,0-.691-2.88,4.108,4.108,0,0,0-2.332-1.443,17.678,17.678,0,0,0-4.5-.45v3.861a3.73,3.73,0,0,1,2.352.634,2.33,2.33,0,0,1,.634,1.789v5.136q.106,3.228,4,3.814v.208a5.549,5.549,0,0,0-2.989,1.212A3.078,3.078,0,0,0,264,224.076v5.318a2.308,2.308,0,0,1-.646,1.808,3.618,3.618,0,0,1-2.34.617V235.7a17.257,17.257,0,0,0,4.49-.456,4.067,4.067,0,0,0,2.328-1.436,4.926,4.926,0,0,0,.7-2.9v-5.4a2.574,2.574,0,0,1,1.125-2.372,6.238,6.238,0,0,1,3.272-.7v-4.109A6.007,6.007,0,0,1,269.588,217.6Z" transform="translate(296.313 1173)"/></g></g></svg>