<svg xmlns="http://www.w3.org/2000/svg" viewBox="353 1680 100 100"><defs><style>.a{fill:none;}.b{fill:#f75454;}</style></defs><g transform="translate(-7 -56)"><rect class="a" width="100" height="100" transform="translate(360 1736)"/><g transform="translate(-144.248 -88.997)"><path class="b" d="M-2083.286,46.371a26.642,26.642,0,0,1-24.556-16.222l3.991-1.144a22.638,22.638,0,0,0,20.565,13.261,22.607,22.607,0,0,0,22.581-22.581,22.889,22.889,0,0,0-.2-3l3.984-1.143a27.028,27.028,0,0,1,.319,4.138A26.717,26.717,0,0,1-2083.286,46.371Zm1.724-11.137h-3.421a.853.853,0,0,1-.849-.854V31.728c-3.718-.616-6.136-2.5-7.39-5.773l5.347-1.533a.553.553,0,0,1,.209.222l.041.089a4.38,4.38,0,0,0,2.286,2.2,6.236,6.236,0,0,0,2.539.462c2.892,0,3.5-1.21,3.5-2.227a2.122,2.122,0,0,0-.949-1.826,5.256,5.256,0,0,0-1.552-.66l7.792-2.234a6.575,6.575,0,0,1,.993,3.616,6.8,6.8,0,0,1-2.209,5.194,10.07,10.07,0,0,1-5.474,2.477v2.645a.858.858,0,0,1-.253.607.858.858,0,0,1-.609.249Zm-27.755-9.648h0a26.855,26.855,0,0,1-.655-5.9A26.716,26.716,0,0,1-2083.286-7a26.7,26.7,0,0,1,25.206,17.9l-3.959,1.135A22.643,22.643,0,0,0-2083.286-2.9a22.606,22.606,0,0,0-22.58,22.581,22.64,22.64,0,0,0,.508,4.774l-3.957,1.13Zm19.429-5.571h0a4.374,4.374,0,0,1-.878-.762,6.4,6.4,0,0,1-1.6-4.3,7.263,7.263,0,0,1,1.765-4.82,8.177,8.177,0,0,1,4.763-2.523V4.99a.853.853,0,0,1,.851-.854h3.421a.857.857,0,0,1,.859.854V7.514c3.537.586,5.821,2.347,6.979,5.383a2.8,2.8,0,0,1,.163.6.558.558,0,0,1-.558.556h-4.37a.552.552,0,0,1-.479-.279l-.043-.079a4.523,4.523,0,0,0-.742-.933,4.811,4.811,0,0,0-3.387-1.183c-2.728,0-3.135,1.419-3.135,2.265a2,2,0,0,0,.623,1.472,5.468,5.468,0,0,0,2.625.995c1.248.274,2.359.547,3.3.8Z" transform="translate(2638.577 1855)"/><rect class="b" width="68.426" height="3.421" transform="matrix(0.961, -0.276, 0.276, 0.961, 521.248, 1883.498)"/></g></g></svg>