<svg xmlns="http://www.w3.org/2000/svg" viewBox="3307 1033 30 30"><defs><style>.a{fill:#f75454;fill-rule:evenodd;}</style></defs><g transform="translate(1771.577 7)"><path class="a" d="M11.821,29.771c0-.365-.013-1.332-.02-2.616-4.172.929-5.053-2.062-5.053-2.062a4.048,4.048,0,0,0-1.666-2.25c-1.362-.955.1-.935.1-.935a3.159,3.159,0,0,1,2.3,1.585,3.15,3.15,0,0,0,4.366,1.278,3.319,3.319,0,0,1,.952-2.056c-3.331-.388-6.833-1.708-6.833-7.6a6.03,6.03,0,0,1,1.544-4.127,5.661,5.661,0,0,1,.147-4.07S8.92,6.5,11.785,8.493a13.865,13.865,0,0,1,7.511,0c2.863-1.99,4.121-1.577,4.121-1.577a5.65,5.65,0,0,1,.149,4.07,6.02,6.02,0,0,1,1.541,4.127c0,5.909-3.507,7.209-6.849,7.589a3.717,3.717,0,0,1,1.018,2.849c0,2.056-.019,3.715-.019,4.219,0,.412.271.889,1.032.739A15.356,15.356,0,0,0,30.538,15.919a15.194,15.194,0,0,0-15-15.381,15.194,15.194,0,0,0-15,15.381A15.355,15.355,0,0,0,10.8,30.512C11.547,30.653,11.821,30.178,11.821,29.771Z" transform="translate(1534.885 1025.462)"/></g></svg>