<svg xmlns="http://www.w3.org/2000/svg" viewBox="-2364 3345 30 30">
  <defs>
    <style>
      .cls-1 {
        fill: #fff;
      }
    </style>
  </defs>
  <path id="Subtraction_10" data-name="Subtraction 10" class="cls-1" d="M15,30A15,15,0,1,1,30,15,15.017,15.017,0,0,1,15,30ZM7.122,21.074a10,10,0,0,0,15.4-8.428c0-.152,0-.3-.01-.455a7.084,7.084,0,0,0,1.755-1.821,7.009,7.009,0,0,1-2.021.554A3.514,3.514,0,0,0,23.79,8.977a7.057,7.057,0,0,1-2.234.854,3.521,3.521,0,0,0-5.994,3.208A10.025,10.025,0,0,1,8.311,9.365a3.521,3.521,0,0,0,1.089,4.7,3.519,3.519,0,0,1-1.593-.44,3.554,3.554,0,0,0,2.822,3.494,3.541,3.541,0,0,1-.927.123,3.5,3.5,0,0,1-.662-.063,3.518,3.518,0,0,0,3.287,2.443,7.1,7.1,0,0,1-5.2,1.457Z" transform="translate(-2364 3345)"/>
</svg>
