<svg xmlns="http://www.w3.org/2000/svg" viewBox="3382.577 1033 30 30"><defs><style>.a{fill:#f75454;}</style></defs><path class="a" d="M15,30A15,15,0,1,1,30,15,15.017,15.017,0,0,1,15,30Zm-.335-6.331,1.468,0a.5.5,0,0,0,.37-.124.51.51,0,0,0,.127-.373q-.009-2.458,0-4.917a10.685,10.685,0,0,1,.073-1.184,1.789,1.789,0,0,1,.433-1.039,1.55,1.55,0,0,1,1.25-.43,1.168,1.168,0,0,1,1.242.926,4.862,4.862,0,0,1,.144,1.387v5.233c0,.392.125.518.515.518h2.866a.455.455,0,0,0,.565-.562l-.005-1.431q-.009-2.456-.024-4.911a7.459,7.459,0,0,0-.279-1.982,3.307,3.307,0,0,0-1.873-2.315,4.944,4.944,0,0,0-1.976-.417,5.222,5.222,0,0,0-1.246.155A3.765,3.765,0,0,0,16.5,13.228l0-.394a.512.512,0,0,0-.123-.38.489.489,0,0,0-.342-.133l-1.5.006-1.339,0h0a.447.447,0,0,0-.5.5Q12.7,18,12.7,23.174a.507.507,0,0,0,.129.373.476.476,0,0,0,.361.126Zm-5.437,0q.729,0,1.459.005a.448.448,0,0,0,.507-.508q-.008-1.983,0-3.967V16.781q0-1.975,0-3.95a.515.515,0,0,0-.129-.383.49.49,0,0,0-.334-.128c-.53.006-1.016.007-1.5.007l-1.458,0a.522.522,0,0,0-.383.127.515.515,0,0,0-.13.38q.008,5.168,0,10.336a.52.52,0,0,0,.13.382.527.527,0,0,0,.351.124h.41ZM9.223,7h0A2.215,2.215,0,0,0,7,9.231a2.259,2.259,0,0,0,.669,1.595,2.176,2.176,0,0,0,1.537.639A2.233,2.233,0,1,0,9.238,7Z" transform="translate(3382.577 1033)"/></svg>