<svg xmlns="http://www.w3.org/2000/svg" viewBox="467 1680 100 100"><defs><style>.a{fill:none;}.b{fill:#f75454;}</style></defs><g transform="translate(-7 -56)"><rect class="a" width="100" height="100" transform="translate(474 1736)"/><path class="b" d="M135.455,180.652a19.115,19.115,0,0,0-25,0l-6.309,5.69,4.472,4.033,6.209-5.59a12.459,12.459,0,0,1,16.252,0,9.472,9.472,0,0,1,0,14.395,12.458,12.458,0,0,1-16.252,0L94.207,180.672a19.115,19.115,0,0,0-25,0,14.88,14.88,0,0,0,0,22.62,19.115,19.115,0,0,0,25,0l6.309-5.67-4.472-4.033-6.189,5.571a12.459,12.459,0,0,1-16.252,0,9.472,9.472,0,0,1,0-14.395,12.459,12.459,0,0,1,16.252,0l20.624,18.508a19.115,19.115,0,0,0,25,0,14.861,14.861,0,0,0-.02-22.62Z" transform="translate(421 1594)"/></g></svg>