<svg xmlns="http://www.w3.org/2000/svg" viewBox="582 1680 100 100"><defs><style>.a{fill:none;}.b{fill:#f75454;}</style></defs><g transform="translate(-7 -56)"><rect class="a" width="100" height="100" transform="translate(589 1736)"/><g transform="translate(-309.225 388.117)"><path class="b" d="M-2063.954,32.823a25.09,25.09,0,0,1-10.929-2.4l1.773-7.153a22.168,22.168,0,0,0,9.67,2.4c3.892,0,6.123-1.544,6.123-4.235,0-2.292-1.752-3.749-6.466-5.379a28.247,28.247,0,0,1-3.962-1.74l12.56-3.6c4.6,2.4,6.736,5.628,6.736,10.148C-2048.447,26.645-2052.521,32.823-2063.954,32.823Zm-30.384,0a22.6,22.6,0,0,1-6.406-.915l.973-7.038a14.2,14.2,0,0,0,4.463.689c3.437,0,5.214-1.538,5.766-4.988l8.885-2.548c-.01,10.1-4.353,14.8-13.681,14.8Zm4.979-18.757h0V-6.374h8.7V11.572l-8.7,2.494Zm16.2-4.644h0a9.613,9.613,0,0,1-1.262-4.866c0-6.913,5.864-11.559,14.591-11.559a22.889,22.889,0,0,1,9.842,1.945l-1.946,6.981a17.916,17.916,0,0,0-8.01-1.831c-3.874,0-5.608,1.868-5.608,3.719a3.374,3.374,0,0,0,1.694,2.944Z" transform="translate(3022.968 1384.894)"/><rect class="b" width="50.969" height="3.444" transform="matrix(0.961, -0.276, 0.276, 0.961, 924.649, 1402.962)"/></g></g></svg>