<svg xmlns="http://www.w3.org/2000/svg" viewBox="696 1680 100 100"><defs><style>.a{fill:none;}.b{fill:#f75454;}</style></defs><g transform="translate(-7 -56)"><rect class="a" width="100" height="100" transform="translate(703 1736)"/><g transform="translate(-600.001 330)"><path class="b" d="M37.537,52.69A39.311,39.311,0,0,1,8.685,39.775,2.538,2.538,0,1,1,12.4,36.31a34.277,34.277,0,0,0,25.142,11.3c12.09,0,23.223-6.612,30.053-17.768C60.764,18.687,49.629,12.077,37.537,12.077c-12.534,0-24.043,7.111-30.79,19.018a2.538,2.538,0,1,1-4.416-2.5C9.989,15.072,23.153,7,37.537,7s27.549,8.072,35.207,21.593a2.536,2.536,0,0,1,0,2.5C65.086,44.616,51.925,52.69,37.537,52.69Z" transform="translate(1315 1426)"/><path class="b" d="M23.692,36.383A12.692,12.692,0,1,1,36.383,23.692,12.692,12.692,0,0,1,23.692,36.383Zm0-20.307a7.615,7.615,0,1,0,7.615,7.615A7.615,7.615,0,0,0,23.692,16.077Z" transform="translate(1328.846 1432.154)"/></g></g></svg>